<svg version="1.2" xmlns="http://www.w3.org/2000/svg" viewBox="0 0 1503 1333" width="1503" height="1333">
	<title>logo (12)dddd-svg</title>
	<style>
		.s0 { fill: #000000 } 
	</style>
	<g id="#000000ff">
		<path id="Layer" class="s0" d="m137.3 0.6q100.1 0.6 200.1-0.5c129.2 284.6 252.9 571.5 382.6 855.7c-34 74.6-67.9 149.5-101.8 224.3c-159.6-360.2-316.5-721.6-480.9-1079.5zm1167.1 0.2c66-0.2 132.1-0.2 198 0.4c-0.3 443.7-0.3 887.3 0 1331.2c-65.9 0.4-132 0.4-198 0.5q0.6-666 0-1332.1zm-1302.9 122.5c62 133.7 118.6 269.7 180.3 403.4c20.1 37.1 14.2 80 15 120.3c-1.4 228.5 0 457.1-0.6 685.8c-65.2-0.2-130.3 0-195.5 0.1c0.2-403.1-1.3-806.3 0.8-1209.6zm576.5 1209.6c175.5-404.2 354.2-807.1 534.5-1209.3c-0.6 148.6 5.1 297.7-2.4 446c-107.8 255.6-224.1 507.8-334.9 762.4c-65.7 0.8-131.5 0.9-197.2 0.9z" />
	</g>
</svg>